HIERARCHY
ROOT hip
{
	OFFSET 0.000000 0.000000 0.000000 
	CHANNELS 6 Xposition Yposition Zposition Xrotation Zrotation Yrotation
	JOINT abdomen
	{
		OFFSET 0.000000 3.402643 0.000000 
		CHANNELS 3 Xrotation Zrotation Yrotation
		JOINT chest
		{
			OFFSET 0.000000 8.438565 -0.680529 
			CHANNELS 3 Xrotation Zrotation Yrotation
			JOINT neck
			{
				OFFSET 0.000000 10.207942 -0.272212 
				CHANNELS 3 Xrotation Zrotation Yrotation
				JOINT head
				{
					OFFSET 0.000000 3.130431 0.000000 
					CHANNELS 3 Xrotation Zrotation Yrotation
					End Site
					{
						OFFSET 0.000000 3.130435 0.000000 
					}
				}
			}
			JOINT lCollar
			{
				OFFSET 3.470700 6.669187 -0.816635 
				CHANNELS 3 Yrotation Zrotation Xrotation
				JOINT lShldr
				{
					OFFSET 3.198488 0.000000 0.000000 
					CHANNELS 3 Zrotation Yrotation Xrotation
					JOINT lForeArm
					{
						OFFSET 10.139888 0.000000 0.000000 
						CHANNELS 3 Yrotation Zrotation Xrotation
						JOINT lHand
						{
							OFFSET 8.370511 0.000000 0.000000 
							CHANNELS 3 Zrotation Yrotation Xrotation
							End Site
							{
								OFFSET 4.083176 0.000000 0.000000 
							}
						}
					}
				}
			}
			JOINT rCollar
			{
				OFFSET -3.470700 6.669187 -0.816635 
				CHANNELS 3 Yrotation Zrotation Xrotation
				JOINT rShldr
				{
					OFFSET -3.198488 0.000000 0.000000 
					CHANNELS 3 Zrotation Yrotation Xrotation
					JOINT rForeArm
					{
						OFFSET -10.139888 0.000000 0.000000 
						CHANNELS 3 Yrotation Zrotation Xrotation
						JOINT rHand
						{
							OFFSET -8.370511 0.000000 0.000000 
							CHANNELS 3 Zrotation Yrotation Xrotation
							End Site
							{
								OFFSET -4.083176 0.000000 0.000000 
							}
						}
					}
				}
			}
		}
	}
	JOINT lThigh
	{
		OFFSET 5.308129 -1.633274 1.361059 
		CHANNELS 3 Xrotation Zrotation Yrotation
		JOINT lShin
		{
			OFFSET -2.041588 -20.007561 0.000000 
			CHANNELS 3 Xrotation Zrotation Yrotation
			JOINT lFoot
			{
				OFFSET 0.000000 -19.190928 -1.224953 
				CHANNELS 3 Xrotation Yrotation Zrotation
				End Site
				{
					OFFSET 0.000000 -2.449906 4.627600 
				}
			}
		}
	}
	JOINT rThigh
	{
		OFFSET -5.308129 -1.633274 1.361059 
		CHANNELS 3 Xrotation Zrotation Yrotation
		JOINT rShin
		{
			OFFSET 2.041588 -20.007561 0.000000 
			CHANNELS 3 Xrotation Zrotation Yrotation
			JOINT rFoot
			{
				OFFSET 0.000000 -19.190928 -1.224953 
				CHANNELS 3 Xrotation Yrotation Zrotation
				End Site
				{
					OFFSET 0.000000 -2.449906 4.627600 
				}
			}
		}
	}
}
MOTION
Frames: 18
Frame Time: 0.016667
-0.913390 49.020264 62.268215 20.745895 1.960761 11.647748 0.000000 0.000000 0.000000 11.446210 -4.488789 2.232723 15.993112 -5.612583 -1.766575 -15.466655 -0.321539 -3.847761 -4.798008 -16.488028 8.954033 -47.783352 -8.501805 52.293842 -25.091490 9.451219 5.584892 -1.030934 3.378930 -20.618872 11.160518 6.173590 10.141357 24.701088 22.927332 38.522381 35.884815 -12.171926 10.177661 -64.361740 -48.518616 9.012187 -30.555470 2.451261 -11.023530 22.424316 -0.537056 -1.347712 -10.786326 -0.810596 -8.583110 -21.531349 -9.843385 11.942327 31.217468 -0.756874 1.035941 -21.055500 -7.979280 4.486958 
-0.773809 49.029564 62.728115 20.921619 2.291571 12.119458 0.000000 0.000000 0.000000 10.924409 -4.498396 2.282164 15.999032 -5.552758 -2.149420 -15.110290 0.038957 -4.208984 -4.913887 -16.616558 8.423667 -47.868202 -8.164301 52.671276 -24.919352 9.440506 5.564210 -1.247617 3.422581 -19.734718 11.289291 5.731660 9.680775 24.571680 22.839262 40.387585 35.884815 -12.171926 10.177661 -63.607784 -49.006035 8.875285 -29.869066 1.767920 -10.736742 22.073568 -0.341772 -1.112882 -11.209568 -0.925904 -8.059880 -21.443651 -10.390092 11.643373 31.726795 -0.844994 1.185401 -21.194075 -8.150415 4.160031 
-0.658376 49.048462 63.216980 20.925913 2.288510 12.471116 0.000000 0.000000 0.000000 10.742533 -4.332394 2.320378 15.822652 -5.141912 -2.422527 -14.939734 0.223898 -4.560550 -4.984310 -16.413843 8.052597 -48.059780 -8.012101 52.654942 -25.269348 9.459482 5.586006 -1.064581 3.228298 -19.412727 11.208677 5.641863 9.329225 24.783392 22.419113 41.945053 36.248470 -12.172548 10.219767 -63.979473 -49.364498 9.103104 -29.007336 1.592628 -10.747641 21.896294 -0.351607 -1.146063 -11.530570 -1.000779 -8.108727 -20.596581 -10.349100 10.941406 32.073891 -1.020737 1.139954 -20.497770 -7.934919 4.335331 
-0.568152 49.072170 63.703922 20.741405 2.122493 12.938748 0.000000 0.000000 0.000000 10.384085 -4.156582 2.378835 15.636147 -5.102433 -2.540112 -14.759742 0.048674 -4.560545 -5.023303 -16.223066 7.893734 -48.157810 -7.831882 51.733921 -25.802477 9.483214 5.635906 -0.677004 3.151601 -19.957375 11.068956 5.746372 9.095320 25.181730 21.634680 43.256241 36.600788 -12.164497 10.261999 -64.686714 -49.704033 9.695827 -28.302019 1.739262 -10.832601 21.727182 -0.214697 -1.241810 -11.975349 -1.614396 -7.836347 -20.406727 -10.565323 10.063688 33.317959 -0.845312 1.237725 -19.384109 -7.227724 4.193632 
-0.500337 49.091114 64.151672 20.743534 1.958364 13.230812 0.000000 0.000000 0.000000 10.214302 -3.991067 2.251519 15.457708 -5.141649 -2.490611 -14.940277 -0.136284 -4.570346 -5.227823 -16.062542 7.723355 -48.196846 -7.814126 50.494648 -26.875227 9.524236 5.902038 0.218028 3.086762 -20.157808 10.756458 5.662944 9.085435 25.676517 21.189163 44.175457 36.961021 -12.014799 10.370753 -65.551857 -49.856022 10.453704 -27.764383 1.582891 -10.633900 21.901117 -0.279594 -1.289492 -12.308668 -1.858020 -7.571290 -21.300911 -10.525235 9.241169 36.111858 -1.025204 1.110558 -17.719738 -5.274404 3.983762 
-0.459033 49.095261 64.540863 20.736988 1.637152 12.925438 0.000000 0.000000 0.000000 10.033072 -3.815319 2.289836 15.081614 -5.406514 -2.109587 -14.934948 -0.486970 -4.199399 -5.264727 -15.871167 7.564699 -48.160728 -7.951702 48.678616 -28.130054 9.572044 5.998528 1.235894 3.339503 -19.977459 10.625270 5.775140 8.869681 25.907911 21.254189 44.846954 37.316105 -12.008645 10.420307 -65.906952 -49.873371 10.652633 -27.691656 2.256209 -10.261050 22.418070 -0.361282 -1.306206 -13.246049 -2.437420 -7.747782 -23.807602 -10.361032 8.346340 41.393234 -1.031873 1.269226 -14.827992 -2.773348 4.063097 
-0.448623 49.084751 64.881622 21.085281 1.307297 12.278830 0.000000 0.000000 0.000000 9.862271 -3.649750 2.162527 15.076958 -5.671149 -1.766577 -14.936589 -0.838129 -3.662575 -5.303196 -15.683672 7.356820 -47.797443 -7.857117 46.932117 -29.720058 9.490900 6.067410 2.385227 3.845422 -18.894337 10.508170 5.720296 8.690280 25.911400 21.630260 45.360996 37.658131 -11.869275 10.350246 -65.773720 -49.887005 10.433449 -27.592184 2.802911 -9.514921 22.957167 -0.214735 -1.282699 -13.807023 -2.583628 -7.425798 -27.711746 -10.194617 7.145999 47.698280 -1.237610 1.558594 -11.497048 -0.359227 3.925303 
-0.474216 49.076412 65.205467 21.439432 1.139428 11.340279 0.000000 0.000000 0.000000 9.671232 -3.474004 2.200918 14.709191 -5.799124 -1.374990 -14.759059 -1.189623 -3.135509 -5.540717 -15.503863 7.017267 -47.575321 -7.940415 44.982769 -31.683891 9.568193 6.400875 3.679183 4.493536 -17.435442 10.247563 5.595622 8.312558 25.695225 22.333370 45.701317 38.021820 -11.860562 10.394773 -65.056999 -49.879715 10.052915 -27.766863 3.496148 -8.402775 23.496298 -0.039262 -1.486018 -14.314327 -2.796228 -7.366616 -32.046539 -10.174768 5.833377 53.343441 -1.404275 1.499016 -8.779443 0.457401 3.484909 
-0.557451 49.088703 65.546509 21.786425 0.970663 10.226105 0.000000 0.000000 0.000000 9.323235 -3.308001 2.249675 14.698425 -5.976160 -0.668587 -14.586229 -1.365772 -2.608310 -5.584675 -15.303194 6.861374 -47.154964 -8.003019 42.875263 -34.002853 9.506659 6.653725 5.119240 5.114947 -15.620785 10.281106 5.738624 8.111658 25.458260 22.849360 45.628941 38.561367 -11.849958 10.456343 -64.663269 -49.862045 9.897691 -27.597792 4.179207 -7.489305 23.682440 -0.016510 -1.469621 -14.552256 -2.600070 -7.472255 -36.176418 -10.213799 4.995380 55.627419 -1.414226 1.567239 -8.206151 -0.889503 3.635418 
-0.733469 49.116467 65.933670 22.144276 0.636206 9.219370 0.000000 0.000000 0.000000 9.142461 -3.132270 2.288144 14.855957 -5.947253 -0.118580 -14.410253 -1.717617 -2.081192 -5.610614 -14.937072 6.728977 -47.094563 -7.899464 40.537155 -36.499825 9.451612 6.927391 6.369111 5.693299 -13.637341 10.305228 6.049917 7.873423 25.235949 23.162033 45.467670 39.632008 -11.696222 10.648997 -64.790222 -49.298428 10.379759 -27.215378 5.058265 -6.780852 23.636320 0.174699 -1.596963 -15.080245 -2.471466 -7.627456 -39.085533 -10.194388 4.882730 52.993832 -1.287038 1.553452 -9.040928 -2.295543 3.933832 
-1.026991 49.124710 66.391602 22.493622 0.473107 8.623396 0.000000 0.000000 0.000000 8.789793 -2.790932 2.189659 14.669474 -6.035151 0.077692 -14.053838 -1.893659 -1.739268 -5.853439 -14.758780 6.340464 -47.055225 -7.821608 38.398926 -38.998718 9.397263 7.184083 7.288233 6.307568 -12.010400 10.018452 5.960214 7.668891 25.230026 22.973125 45.121597 40.876598 -11.532490 10.677013 -64.672691 -48.532978 10.880625 -27.252472 5.937145 -7.105936 23.682436 -0.010622 -1.468499 -15.184585 -1.837513 -8.301741 -40.783001 -10.037852 5.191420 46.117470 -1.227671 1.502530 -9.883264 -4.114549 4.240082 
-1.440766 49.072800 66.931313 22.670015 0.154468 8.662155 0.000000 0.000000 0.000000 8.612567 -2.449571 2.072176 14.669912 -5.683593 -0.020402 -14.059649 -1.893827 -1.563583 -6.061203 -14.420344 6.199359 -46.892548 -7.524384 36.466190 -41.484699 9.352001 7.437578 7.862095 6.692227 -10.398001 9.555037 6.023482 7.449145 25.219587 22.412823 44.443466 42.287895 -11.374454 10.716495 -64.237106 -47.607101 11.128812 -26.849480 6.991204 -7.325193 23.640341 -0.020449 -1.809445 -15.519790 -1.600300 -8.771784 -41.242413 -10.038382 6.272355 37.691998 -0.849558 1.353479 -10.605121 -5.188244 5.075064 
-1.962600 48.953991 67.539856 22.491310 -0.173501 9.238297 0.000000 0.000000 0.000000 8.436413 -2.274331 1.749382 14.501284 -5.322258 -0.098141 -13.877734 -1.893649 -1.749028 -6.268323 -14.071344 6.058486 -46.742992 -7.429458 34.865635 -43.454491 9.417353 7.784495 8.483100 6.981297 -9.300359 9.265052 6.115674 7.244789 25.065205 21.825863 43.798492 43.542625 -11.218141 10.898048 -63.299988 -46.873730 10.842535 -26.232164 7.674510 -8.506545 24.173437 -0.186654 -1.687656 -15.851906 -1.367168 -9.441439 -40.800259 -9.843651 6.891898 31.916088 -0.844847 1.347160 -11.013721 -5.856937 5.893922 
-2.567960 48.803322 68.189758 22.145248 -0.499578 10.332399 0.000000 0.000000 0.000000 8.437458 -1.923208 1.455897 14.693666 -4.902136 -0.529587 -13.881687 -1.893463 -1.925036 -6.608971 -13.776606 6.075728 -46.668617 -7.194937 33.828022 -44.889347 9.330047 7.942589 8.950589 7.115056 -8.611178 8.574658 6.201722 7.356499 24.588478 21.042076 43.203701 44.793137 -11.077454 11.078713 -61.551746 -46.532341 9.480067 -25.975836 8.378723 -10.025396 24.699986 -0.196410 -1.720986 -16.191458 -1.438889 -9.507570 -40.321114 -9.677535 7.174215 30.158058 -0.571378 1.027282 -11.434546 -6.422431 6.391904 
-3.214867 48.671364 68.855843 21.788937 -0.995082 11.544597 0.000000 0.000000 0.000000 8.434972 -1.581711 1.152713 14.881408 -4.491534 -0.979681 -13.705909 -1.893463 -1.925036 -6.950920 -13.472476 6.092931 -46.771614 -7.157521 33.104206 -45.586338 9.347753 8.005659 9.390518 7.390660 -7.520921 8.082914 6.306738 7.310270 24.147421 20.467918 43.200470 45.668091 -10.811863 11.093490 -59.814304 -46.366772 8.142974 -25.473341 9.266742 -11.556376 25.220394 -0.108658 -1.909461 -15.935705 -0.983541 -9.456171 -39.538357 -9.335495 5.659752 31.385870 -0.845006 1.154778 -12.710739 -6.532131 6.484890 
-3.853048 48.592270 69.523384 21.260971 -1.323515 12.835317 0.000000 0.000000 0.000000 8.434798 -1.230268 1.035337 14.896064 -4.451978 -1.303247 -13.533757 -1.893247 -2.110804 -7.285923 -13.343223 6.102778 -47.303074 -7.059468 32.879852 -45.586338 9.347753 8.005659 9.989322 7.455383 -6.131418 7.715495 6.440625 7.473495 23.752140 19.741741 43.364967 46.743118 -10.668206 11.252074 -59.288876 -46.005924 7.734429 -24.842281 9.794531 -12.892998 25.573950 -0.362525 -1.606644 -15.839409 -0.926044 -8.628019 -38.698254 -8.622537 4.604764 33.507893 -0.923014 1.056788 -13.773644 -6.662722 5.981087 
-4.446891 48.565331 70.183006 20.736727 -1.488694 13.842515 0.000000 0.000000 0.000000 8.434321 -1.054608 0.703186 15.078543 -4.266218 -1.450025 -13.357655 -1.893235 -2.120564 -7.455393 -13.196897 6.117142 -47.718834 -6.776488 33.214996 -45.065212 9.334347 7.963869 10.762539 7.167561 -4.410244 7.540608 6.590827 7.449677 23.740314 18.878328 44.025082 48.174438 -10.527541 11.455777 -59.571045 -45.619129 8.297607 -23.922583 10.487577 -14.043697 25.739492 -0.362530 -1.623485 -14.890534 -0.690963 -8.081335 -37.702202 -7.743434 3.477949 34.728882 -0.923367 1.076928 -14.970819 -7.370199 4.713466 
-4.983328 48.565418 70.824417 20.213362 -1.333485 14.437554 0.000000 0.000000 0.000000 8.604742 -0.878865 0.556575 15.259374 -4.080472 -1.586359 -13.357655 -1.893235 -2.120564 -7.634692 -13.051695 6.131325 -48.228218 -6.362813 34.092865 -43.980492 9.300839 7.699389 11.562686 6.716429 -2.899794 7.549061 6.766339 7.432165 24.088116 17.883570 44.614330 49.592667 -10.393637 11.631562 -60.927727 -45.054829 9.710451 -23.370796 11.004178 -14.626386 25.584745 -0.260721 -1.585974 -13.753148 -1.267216 -7.522775 -36.851143 -7.216145 2.809519 35.236877 -1.030938 1.236458 -15.602551 -7.526581 3.856364 
